<?xml version="1.0" encoding="UTF-8" standalone="no"?>
<!-- Created with Inkscape (http://www.inkscape.org/) -->

<svg
   width="251mm"
   height="42mm"
   viewBox="0 0 251 42"
   version="1.1"
   id="svg1"
   xmlns="http://www.w3.org/2000/svg"
   xmlns:svg="http://www.w3.org/2000/svg">
  <defs
     id="defs1">
    <clipPath
       clipPathUnits="userSpaceOnUse"
       id="clipPath3">
      <path
         d="M 0,612 H 1152 V 0 H 0 Z"
         transform="translate(-436.77831,-319.06491)"
         id="path3" />
    </clipPath>
    <clipPath
       clipPathUnits="userSpaceOnUse"
       id="clipPath5">
      <path
         d="M 0,612 H 1152 V 0 H 0 Z"
         transform="translate(-513.86872,-275.4736)"
         id="path5" />
    </clipPath>
    <clipPath
       clipPathUnits="userSpaceOnUse"
       id="clipPath7">
      <path
         d="M 0,612 H 1152 V 0 H 0 Z"
         transform="translate(-252.02641,-316.46831)"
         id="path7" />
    </clipPath>
    <clipPath
       clipPathUnits="userSpaceOnUse"
       id="clipPath9">
      <path
         d="M 0,612 H 1152 V 0 H 0 Z"
         transform="translate(-882.68462,-276.37011)"
         id="path9" />
    </clipPath>
    <clipPath
       clipPathUnits="userSpaceOnUse"
       id="clipPath11">
      <path
         d="M 0,612 H 1152 V 0 H 0 Z"
         transform="translate(-895.18952,-242.90631)"
         id="path11" />
    </clipPath>
    <clipPath
       clipPathUnits="userSpaceOnUse"
       id="clipPath13">
      <path
         d="M 0,612 H 1152 V 0 H 0 Z"
         transform="translate(-918.94532,-244.3867)"
         id="path13" />
    </clipPath>
    <clipPath
       clipPathUnits="userSpaceOnUse"
       id="clipPath15">
      <path
         d="M 0,612 H 1152 V 0 H 0 Z"
         transform="translate(-799.24412,-263.15431)"
         id="path15" />
    </clipPath>
    <clipPath
       clipPathUnits="userSpaceOnUse"
       id="clipPath17">
      <path
         d="M 0,612 H 1152 V 0 H 0 Z"
         transform="translate(-709.08502,-313.44191)"
         id="path17" />
    </clipPath>
    <clipPath
       clipPathUnits="userSpaceOnUse"
       id="clipPath19">
      <path
         d="M 0,612 H 1152 V 0 H 0 Z"
         transform="translate(-670.10942,-263.15431)"
         id="path19" />
    </clipPath>
    <clipPath
       clipPathUnits="userSpaceOnUse"
       id="clipPath21">
      <path
         d="M 0,612 H 1152 V 0 H 0 Z"
         transform="translate(-225.13141,-224.407)"
         id="path21" />
    </clipPath>
  </defs>
  <g
     id="layer1">
    <path
       id="path1"
       d="M 134.85535,17.362578 H 119.16979 V 4.2843977 h -2.45004 V 34.273688 h 2.45004 v -14.81667 h 15.68556 v 14.81667 h 2.44969 V 4.2843977 h -2.44969 z"
       style="fill:#231f20;fill-opacity:1;fill-rule:nonzero;stroke:none;stroke-width:0.352778" />
    <path
       id="path2"
       d="m 0,0 c -17.623,0 -32.875,-10.146 -40.241,-24.913 -0.002,-0.004 -0.002,-0.005 -0.005,-0.01 -0.481,-0.968 -0.932,-1.956 -1.345,-2.964 -0.028,-0.067 -0.054,-0.135 -0.081,-0.203 -0.088,-0.213 -0.171,-0.423 -0.255,-0.639 -0.028,-0.075 -0.058,-0.15 -0.086,-0.227 -0.164,-0.431 -0.323,-0.866 -0.475,-1.304 -0.015,-0.041 -0.03,-0.084 -0.045,-0.127 -0.059,-0.178 -0.117,-0.355 -0.175,-0.532 -0.046,-0.138 -0.091,-0.276 -0.137,-0.417 -0.051,-0.162 -0.103,-0.328 -0.153,-0.493 -0.049,-0.164 -0.099,-0.329 -0.146,-0.493 -0.043,-0.149 -0.086,-0.296 -0.13,-0.442 -0.083,-0.299 -0.162,-0.598 -0.243,-0.9 -0.023,-0.092 -0.045,-0.184 -0.068,-0.278 -0.058,-0.236 -0.117,-0.472 -0.172,-0.713 -0.029,-0.116 -0.055,-0.232 -0.083,-0.348 -0.051,-0.231 -0.101,-0.458 -0.148,-0.689 -0.022,-0.103 -0.044,-0.207 -0.065,-0.31 -0.065,-0.315 -0.124,-0.631 -0.181,-0.948 -0.004,-0.015 -0.006,-0.031 -0.009,-0.046 -0.062,-0.346 -0.12,-0.698 -0.174,-1.046 -0.008,-0.063 -0.017,-0.125 -0.028,-0.187 -0.043,-0.291 -0.083,-0.582 -0.121,-0.873 -0.01,-0.075 -0.019,-0.148 -0.028,-0.222 -0.04,-0.323 -0.079,-0.647 -0.111,-0.973 -0.002,-0.024 -0.007,-0.045 -0.01,-0.069 -0.073,-0.728 -0.129,-1.461 -0.167,-2.197 -0.002,-0.052 -0.005,-0.104 -0.007,-0.155 -0.018,-0.331 -0.028,-0.663 -0.038,-0.997 0,-0.035 -0.003,-0.07 -0.003,-0.106 -0.008,-0.373 -0.015,-0.748 -0.015,-1.125 0,-0.019 -0.023,-0.04 -0.064,-0.062 -0.035,-15.774 -12.83,-28.55 -28.613,-28.55 -15.804,0 -28.615,12.812 -28.615,28.612 0,15.806 12.811,28.617 28.615,28.617 10.847,0 20.285,-6.039 25.136,-14.933 1.7,6.037 4.496,11.615 8.161,16.505 C -48.547,-5.692 -60.419,0 -73.622,0 c -24.822,0 -44.945,-20.123 -44.945,-44.946 0,-24.821 20.123,-44.941 44.945,-44.941 17.624,0 32.875,10.143 40.241,24.912 0.003,0.002 0.003,0.006 0.005,0.008 0.481,0.971 0.932,1.959 1.345,2.965 0.026,0.068 0.055,0.134 0.083,0.205 0.086,0.21 0.17,0.424 0.253,0.636 0.028,0.079 0.056,0.153 0.086,0.229 0.164,0.432 0.323,0.866 0.475,1.304 0.015,0.043 0.03,0.086 0.045,0.128 0.059,0.177 0.117,0.354 0.176,0.53 0.045,0.141 0.09,0.277 0.133,0.416 0.055,0.166 0.106,0.329 0.157,0.495 0.048,0.164 0.098,0.327 0.146,0.493 0.043,0.147 0.086,0.293 0.126,0.443 0.084,0.298 0.166,0.598 0.246,0.899 0.023,0.092 0.046,0.185 0.068,0.278 0.059,0.237 0.117,0.474 0.173,0.713 0.028,0.116 0.055,0.233 0.08,0.349 0.051,0.227 0.103,0.458 0.15,0.688 0.022,0.104 0.044,0.205 0.065,0.309 0.063,0.316 0.124,0.633 0.181,0.949 0.004,0.016 0.006,0.03 0.009,0.043 0.063,0.35 0.121,0.698 0.174,1.049 0.008,0.062 0.018,0.126 0.026,0.185 0.045,0.291 0.086,0.582 0.123,0.874 0.01,0.074 0.019,0.147 0.028,0.222 0.041,0.324 0.079,0.65 0.112,0.975 0.002,0.021 0.004,0.045 0.006,0.066 0.076,0.729 0.13,1.463 0.168,2.199 0.005,0.051 0.007,0.103 0.009,0.155 0.015,0.332 0.028,0.664 0.036,0.997 0.003,0.035 0.005,0.069 0.005,0.103 0.008,0.376 0.015,0.75 0.015,1.124 0,0.024 0.023,0.044 0.064,0.064 0.033,15.773 12.83,28.553 28.613,28.553 15.803,0 28.616,-12.811 28.616,-28.617 0,-15.8 -12.813,-28.612 -28.616,-28.612 -10.846,0 -20.284,6.035 -25.136,14.933 -1.7,-6.038 -4.496,-11.616 -8.161,-16.505 8.223,-9.066 20.095,-14.757 33.297,-14.757 24.822,0 44.945,20.12 44.945,44.941 C 44.945,-20.123 24.822,0 0,0"
       style="fill:#231f20;fill-opacity:1;fill-rule:nonzero;stroke:none"
       transform="matrix(0.35277776,0,0,-0.35277776,76.564323,2.3007977)"
       clip-path="url(#clipPath3)" />
    <path
       id="path4"
       d="m 0,0 c -11.76,4.929 -17.136,9.521 -17.136,18.704 0,6.608 4.592,14.784 17.584,14.784 7.168,0 12.544,-2.352 14.896,-4.032 l 2.352,5.936 c -2.912,1.904 -8.96,3.92 -16.8,3.92 -14.672,0 -24.976,-9.072 -24.976,-21.616 0,-11.759 8.512,-19.04 21.616,-23.744 C 9.296,-10.752 14,-16.352 14,-25.647 c 0,-9.969 -7.28,-16.801 -19.488,-16.801 -6.944,0 -13.552,2.24 -18.256,5.488 l -2.352,-5.824 c 4.256,-3.135 12.656,-5.487 20.048,-5.487 17.696,0 27.104,10.416 27.104,23.295 C 21.056,-12.432 13.776,-5.712 0,0"
       style="fill:#231f20;fill-opacity:1;fill-rule:nonzero;stroke:none"
       transform="matrix(0.35277776,0,0,-0.35277776,103.7601,17.678838)"
       clip-path="url(#clipPath5)" />
    <path
       id="path6"
       d="m 0,0 c -9.33,0.056 -18.72,-1.513 -26.895,-5.627 v -10.148 c 7.134,4.588 16.293,6.878 27.261,6.813 30.94,-0.186 48.9,-16.813 48.709,-48.733 -0.037,-6.16 -0.211,-11.76 -0.935,-15.814 l -75.035,0.45 v -8.681 l 81.982,-0.492 c 0.884,7.275 1.069,14.834 1.119,23.094 C 56.515,-7.619 20.58,-0.124 0,0"
       style="fill:#231f20;fill-opacity:1;fill-rule:nonzero;stroke:none"
       transform="matrix(0.35277776,0,0,-0.35277776,11.387958,3.2168277)"
       clip-path="url(#clipPath7)" />
    <path
       id="path8"
       d="m 0,0 h -44.464 v 37.072 h -6.944 v -85.009 h 6.944 v 42 H 0 v -42 H 6.943 V 37.072 H 0 Z"
       style="fill:#231f20;fill-opacity:1;fill-rule:nonzero;stroke:none"
       transform="matrix(0.35277776,0,0,-0.35277776,233.87016,17.362578)"
       clip-path="url(#clipPath9)" />
    <path
       id="path10"
       d="m 0,0 h 4.079 v -10.758 h 1.76 V 0 H 9.878 V 1.48 H 0 Z"
       style="fill:#231f20;fill-opacity:1;fill-rule:nonzero;stroke:none"
       transform="matrix(0.35277776,0,0,-0.35277776,238.28161,29.167858)"
       clip-path="url(#clipPath11)" />
    <path
       id="path12"
       d="m 0,0 h -2.6 l -2.719,-7.52 c -0.2,-0.679 -0.48,-1.719 -0.76,-2.599 h -0.08 c -0.28,0.88 -0.52,1.76 -0.84,2.68 L -9.679,0 h -2.599 l -0.96,-12.238 h 1.72 l 0.56,8.118 c 0.08,1 0.08,1.88 0.08,2.8 h 0.12 c 0.24,-0.88 0.6,-2.08 0.879,-2.879 l 2.68,-7.84 h 1.96 L -2.56,-4.4 c 0.321,0.961 0.72,2.28 1,3.08 h 0.081 c 0.04,-1.08 0.119,-2.039 0.159,-2.8 l 0.52,-8.118 h 1.84 z"
       style="fill:#231f20;fill-opacity:1;fill-rule:nonzero;stroke:none"
       transform="matrix(0.35277776,0,0,-0.35277776,246.66213,28.645608)"
       clip-path="url(#clipPath13)" />
    <path
       id="path14"
       d="m 0,0 h -28.56 l 9.745,27.888 c 1.792,5.376 3.248,10.303 4.368,15.343 h 0.336 c 1.231,-4.927 2.576,-9.856 4.479,-15.791 z m -17.695,50.288 -29.68,-85.009 h 7.056 l 9.967,29.12 H 1.793 l 10.079,-29.12 h 7.28 l -29.679,85.009 z"
       style="fill:#231f20;fill-opacity:1;fill-rule:nonzero;stroke:none"
       transform="matrix(0.35277776,0,0,-0.35277776,204.43421,22.024818)"
       clip-path="url(#clipPath15)" />
    <path
       id="path16"
       d="m 0,0 h -6.944 v -85.008 h 43.679 v 5.824 H 0 Z"
       style="fill:#231f20;fill-opacity:1;fill-rule:nonzero;stroke:none"
       transform="matrix(0.35277776,0,0,-0.35277776,172.62808,4.2844677)"
       clip-path="url(#clipPath17)" />
    <path
       id="path18"
       d="m 0,0 h -28.561 l 9.745,27.888 c 1.792,5.376 3.248,10.303 4.368,15.343 h 0.336 c 1.231,-4.927 2.576,-9.856 4.479,-15.791 z m -17.696,50.288 -29.68,-85.009 h 7.056 l 9.967,29.12 H 1.791 l 10.08,-29.12 h 7.28 l -29.679,85.009 z"
       style="fill:#231f20;fill-opacity:1;fill-rule:nonzero;stroke:none"
       transform="matrix(0.35277776,0,0,-0.35277776,158.87835,22.024818)"
       clip-path="url(#clipPath19)" />
    <path
       id="path20"
       d="m 0,0 v -8.68 l 83.922,-0.504 0.052,8.679 z"
       style="fill:#b11d23;fill-opacity:1;fill-rule:nonzero;stroke:none"
       transform="matrix(0.35277776,0,0,-0.35277776,1.9,35.694008)"
       clip-path="url(#clipPath21)" />
  </g>
</svg>
